<?xml version="1.0" encoding="UTF-8" standalone="no"?>
<svg
   xmlns:dc="http://purl.org/dc/elements/1.1/"
   xmlns:cc="http://creativecommons.org/ns#"
   xmlns:rdf="http://www.w3.org/1999/02/22-rdf-syntax-ns#"
   xmlns:svg="http://www.w3.org/2000/svg"
   xmlns="http://www.w3.org/2000/svg"
   xmlns:sodipodi="http://sodipodi.sourceforge.net/DTD/sodipodi-0.dtd"
   xmlns:inkscape="http://www.inkscape.org/namespaces/inkscape"
   width="300"
   height="134"
   viewBox="0 0 750 333">
    <path
       d="M 114.1,0 L 269.01,0 C 268.95,0.6 268.84,1.8 268.79,2.39 C 266.25,12.35 261.62,21.87 254.79,29.59 C 249.59,36.26 242.5,41.05 235.46,45.56 C 217.4,56.3 196.57,60.96 176,63.95 C 167.69,64.73 159.42,66.24 151.05,65.9 C 131.14,65.92 111.23,65.78 91.31,65.98 C 98.87,43.97 106.4,21.95 114.1,0 z"
       id="path2574"
       style="opacity:1;fill:#2e3192" />
    <path
       d="M 303.95,1.4 C 308.92,1.37 313.75,2.61 318.6,3.53 C 322.89,4.65 327.38,4.99 331.5,6.71 C 343.05,9.82 354.25,14.4 364.46,20.65 C 354.48,41.87 335.44,57.36 314.84,67.72 C 301.36,74.16 287.16,79.18 272.54,82.33 C 267,83.93 261.25,84.52 255.57,85.42 C 247.14,87.13 238.51,87.43 229.98,88.32 C 163.66,88.38 97.34,88.22 31.02,88.4 C 32.5,83.89 33.84,79.33 35.86,75.02 C 86.25,75.13 136.64,75.01 187.03,75.09 C 198.17,74.08 209.47,73.56 220.22,70.12 C 221.29,69.89 222.36,69.68 223.44,69.48 C 233.25,66.3 243.01,62.88 252.22,58.2 C 261.32,53.3 270.03,47.65 277.93,40.96 C 284.03,36.51 288.48,30.34 293.23,24.57 C 297.98,17.49 302.47,9.91 303.95,1.4 z"
       id="path2576"
       style="opacity:1;fill:#2e3192" />
    <path
       d="M 377.9,56.9 C 382.63,52.43 387.18,47.76 391.73,43.1 C 398.74,52.37 405.1,62.35 408.48,73.57 C 409.13,75.91 409.79,78.25 410.58,80.55 C 412.32,90 413.37,99.59 412.97,109.21 C 283.26,109.2 153.55,109.22 23.84,109.2 C 25.28,104.94 26.62,100.62 28.52,96.54 C 29.66,95.48 31.56,96.22 32.99,95.97 C 111.98,96.07 190.97,95.98 269.96,96.02 C 273.44,96.02 276.96,96.22 280.38,95.47 C 288.92,93.87 297.75,93.68 306.06,90.99 C 332.3,85.85 357.39,74.14 377.9,56.9 z"
       id="path2578"
       style="opacity:1;fill:#2e3192" />
    <path
       d="M 21.97,114.54 C 151.83,114.55 281.69,114.56 411.54,114.54 C 411.95,122.9 409.11,130.89 406.79,138.79 C 402.15,152.1 394.41,164.26 384.69,174.44 C 365.53,154.63 340.12,141.6 313.64,134.6 C 307.43,132.47 300.81,131.96 294.47,130.32 C 288.27,129.76 282.2,128.21 275.98,127.86 C 189.87,127.89 103.76,127.82 17.65,127.9 C 18.93,123.4 20.66,119.04 21.97,114.54 z"
       id="path2580"
       style="opacity:1;fill:#2e3192" />
    <path
       d="M 15.05,135.38 C 84.7,135.51 154.35,135.4 224,135.44 C 236.09,135.06 248.03,137.46 259.97,138.97 C 283.83,143.45 307.61,150.73 328.03,164.18 C 334.99,168.6 341.39,173.9 347.05,179.9 C 351.74,184.28 355.88,189.28 358.89,194.97 C 342.92,204.52 325.54,211.73 307.51,216.28 C 305.62,217.04 303.66,217.6 301.67,217.99 C 298.69,206.63 291.1,197.22 283.48,188.57 C 278.02,184 273.04,178.79 266.91,175.09 C 250.56,163.6 231.65,155.99 212.17,151.86 C 204.65,149.62 196.74,149.76 189.03,148.8 C 129.56,148.77 70.09,148.78 10.62,148.79 C 11.69,144.2 13.26,139.74 15.05,135.38 z"
       id="path2582"
       style="opacity:1;fill:#2e3192" />
    <path
       d="M 59.98,156.31 C 94.64,156.37 129.3,156.32 163.96,156.33 C 168.38,156.45 172.75,157.22 177.17,157.32 C 182.12,158.25 187.16,158.6 192.13,159.36 C 205.49,161.67 218.61,165.47 230.94,171.13 C 243.13,177.13 254.86,184.84 263.06,195.88 C 268.77,202.75 271.81,211.34 273.53,220 C 246.26,219.89 218.98,220.04 191.71,219.93 C 182.67,245.17 173.81,270.47 164.75,295.7 C 160.09,308.09 156.37,320.84 151.13,333 L 0,333 L 0,331.05 C 19.85,272.76 40.33,214.67 59.98,156.31 z"
       id="path2584"
       style="opacity:1;fill:#2e3192" />
    <path
       d="M 214.92,247.02 C 231.97,247.14 249.04,246.95 266.09,247.1 C 272.44,248.05 279.47,248.55 284.47,253.05 C 285.18,254.11 285.92,255.16 286.66,256.2 C 287.62,263.72 283.89,270.5 281.56,277.39 C 280.11,281.8 278.76,286.34 276.1,290.2 C 268.58,300.06 256.31,305.64 244.02,305.89 C 233.29,305.97 222.56,305.7 211.84,305.98 C 207.36,314.65 204.65,324.16 200.5,333 L 180.43,333 C 192.31,304.5 203.07,275.53 214.92,247.02 M 228.88,260.99 C 226.66,267.6 223.52,273.87 221.38,280.51 C 220.82,281.85 220.27,283.21 219.74,284.57 C 218.89,286.48 218.19,288.45 217.43,290.39 C 227.97,290.46 238.52,290.4 249.06,290.42 C 253.16,288.74 257.6,286.94 260.07,283.02 C 262.21,279.45 263.3,275.39 264.75,271.52 C 265.33,269.63 266.4,267.52 265.43,265.58 C 264.5,262.57 260.77,262.56 258.47,261.08 C 248.61,260.86 238.74,261.01 228.88,260.99 z"
       id="path2587"
       style="opacity:1;fill:#231f20" />
    <path
       d="M 329.78,247.03 C 339.42,247.06 349.06,247.07 358.7,247.02 C 358.71,275.68 358.7,304.34 358.7,333 L 338.6,333 C 338.6,327.57 338.61,322.14 338.6,316.71 C 324.44,316.73 310.29,316.75 296.14,316.7 C 291.87,321.67 287.87,326.88 284.03,332.19 C 277.08,332.21 270.13,332.15 263.18,332.23 C 285.37,303.83 307.73,275.55 329.78,247.03 M 306.2,303.38 C 316.99,303.91 327.81,303.42 338.61,303.64 C 338.69,289.75 338.41,275.86 338.76,261.99 C 328.02,275.87 317.27,289.76 306.2,303.38 z"
       id="path2589"
       style="opacity:1;fill:#231f20" />
    <path
       d="M 400.06,247.02 C 417.72,247.15 435.39,246.92 453.05,247.12 C 458.67,247.91 464.64,248.32 469.66,251.21 C 472.57,252.7 473.64,255.93 475.12,258.61 C 474.68,267.27 469.38,274.58 466.55,282.55 C 465.5,286.14 462.98,288.9 460.61,291.67 C 454.4,296.73 447.04,300.01 439.52,302.61 C 438.32,302.9 437.13,303.22 435.95,303.55 C 443.96,313.09 451.19,323.26 458.96,333 L 439.64,333 C 432.18,323.48 424.91,313.81 417.46,304.29 C 410.79,304.49 404.09,303.98 397.45,304.52 C 393.17,313.86 389.72,323.59 385.57,333 L 366,333 C 377.28,304.31 388.8,275.71 400.06,247.02 M 402.6,289.54 C 414.22,289.62 425.88,289.97 437.48,289.37 C 440.09,288.07 442.79,286.83 445.11,285.03 C 447.9,282.54 448.86,278.75 450.29,275.43 C 451.72,271.61 454.38,267.61 452.53,263.47 C 450.47,262.75 448.39,262.06 446.45,261.07 C 435.83,260.91 425.21,261.04 414.59,260.95 C 410.3,270.35 406.75,280.07 402.6,289.54 z"
       id="path2591"
       style="opacity:1;fill:#231f20" />
    <path
       d="M 496.12,247.01 C 513.45,247.12 530.77,246.99 548.09,247.07 C 555.09,247.81 562.83,248.4 568.3,253.36 C 572.72,258.43 569.95,265.2 567.65,270.53 C 564.9,276.26 563.01,282.4 559.74,287.86 C 552.94,296.48 542.15,300.25 532.09,303.59 C 539.58,313.35 547.42,322.88 554.41,333 L 535.76,333 C 528.07,323.69 520.86,313.97 513.58,304.33 C 506.77,304.28 499.96,304.35 493.16,304.29 C 489.56,313.96 485.29,323.36 481.63,333 L 461.81,333 C 473.39,304.39 484.43,275.57 496.12,247.01 M 510.14,261 C 509.03,264.2 507.64,267.3 506.52,270.5 C 503.77,275.98 501.91,281.85 499.45,287.46 C 499.33,288 499.09,289.07 498.97,289.61 C 510.14,289.76 521.32,289.58 532.5,289.68 C 535.89,288.5 538.78,286.36 541.78,284.44 C 545.35,279.28 547.12,273.1 549.2,267.23 C 550.23,265.23 547.89,264.05 546.89,262.73 C 545.33,262.37 543.85,261.78 542.43,261.08 C 531.67,260.93 520.9,260.98 510.14,261 z"
       id="path2593"
       style="opacity:1;fill:#231f20" />
    <path
       d="M 582.59,247 C 589.99,247.08 597.39,247.08 604.79,247.01 C 605.93,251.91 607.16,256.81 608.74,261.6 C 610.47,268.52 612.47,275.38 614.58,282.2 C 619.97,276.71 625.36,271.23 631.25,266.28 C 637.53,259.44 644.92,253.8 651.24,247.01 C 658.76,247.1 666.27,247.03 673.79,247.04 C 667.03,251.88 662.08,258.7 655.56,263.82 C 650.74,267.86 646.79,272.84 641.95,276.85 C 636.19,281.41 631.7,287.33 625.93,291.87 C 622.16,295.46 617.62,298.77 615.93,303.92 C 611.78,313.55 608.24,323.43 603.97,333 L 584.67,333 C 589.03,323.1 592.98,313.01 597.04,302.98 C 598.28,300.56 596.99,297.99 596.4,295.59 C 593.44,286.28 591.21,276.75 588.33,267.41 C 586.45,260.6 584.55,253.79 582.59,247 z"
       id="path2595"
       style="opacity:1;fill:#231f20" />
    <path
       d="M 680.42,254.51 C 687.23,248.87 696.37,246.8 705.05,247.03 C 715.42,247.14 725.79,246.93 736.16,247.1 C 741.78,247.92 748.16,250.46 750,256.39 L 750,266.37 C 743.03,266.37 736.07,266.36 729.1,266.38 C 729.1,265.53 729.1,263.83 729.1,262.99 C 728.21,262.04 727.32,261.1 726.45,260.16 C 718.3,260.25 710.14,260.03 702,260.23 C 696.47,261.09 691.57,265.04 689.32,270.14 C 688.43,272.54 688.04,275.08 687.52,277.58 C 687.71,278.3 688.07,279.74 688.26,280.46 C 695.49,281.35 702.77,281.83 710.05,282.11 C 717.64,283.08 725.7,282.54 732.74,286.04 C 735.32,287.15 736.92,289.55 738.59,291.68 C 738.29,298.44 735.24,304.59 732.8,310.77 C 729.09,317.68 724.77,324.96 717.55,328.67 C 713.21,331.37 708.01,331.79 703.17,333 L 666.82,333 C 660.78,332.03 653.28,330.42 651.26,323.69 C 651.16,319.57 651.9,315.43 651.66,311.28 C 658.27,311.34 664.88,311.35 671.49,311.28 C 671.78,313.62 672.22,315.94 672.79,318.23 C 677.38,319.47 682.15,318.82 686.83,319.31 C 693.17,320.47 699.82,319.81 705.93,317.84 C 712.89,314.48 716.37,306.39 717.02,299.03 C 713.16,296.53 708.41,297.55 704.12,296.73 C 693.46,296.59 682.6,296.27 672.39,292.88 C 668.51,291.74 665.14,288.08 665.57,283.85 C 666.15,279.47 668.01,275.4 669.19,271.16 C 671,264.57 675.04,258.7 680.42,254.51 z"
       id="path2597"
       style="opacity:1;fill:#231f20" />
</svg>
